<svg width="1263" height="1896" viewBox="0 0 1263 1896" fill="none" xmlns="http://www.w3.org/2000/svg">
<path d="M626.4 1894.66C1029.79 1894.66 1356.8 1458.95 1356.8 921.465C1356.8 383.984 1029.79 -51.73 626.4 -51.73C223.011 -51.73 -104 383.984 -104 921.465C-104 1458.95 223.011 1894.66 626.4 1894.66Z" stroke="#E8E6E2" stroke-opacity="0.2" stroke-width="2" stroke-miterlimit="10"/>
<path d="M626.399 1857.05C1014.2 1857.05 1328.57 1438.17 1328.57 921.465C1328.57 404.755 1014.2 -14.1211 626.399 -14.1211C238.599 -14.1211 -75.7754 404.755 -75.7754 921.465C-75.7754 1438.17 238.599 1857.05 626.399 1857.05Z" stroke="#E8E6E2" stroke-opacity="0.2" stroke-width="2" stroke-miterlimit="10"/>
<path d="M626.402 1819.43C998.609 1819.43 1300.34 1417.4 1300.34 921.465C1300.34 425.531 998.609 23.498 626.402 23.498C254.195 23.498 -47.538 425.531 -47.538 921.465C-47.538 1417.4 254.195 1819.43 626.402 1819.43Z" stroke="#E8E6E2" stroke-opacity="0.2" stroke-width="2" stroke-miterlimit="10"/>
<path d="M626.401 1781.82C983.019 1781.82 1272.11 1396.63 1272.11 921.464C1272.11 446.302 983.019 61.1064 626.401 61.1064C269.783 61.1064 -19.3135 446.302 -19.3135 921.464C-19.3135 1396.63 269.783 1781.82 626.401 1781.82Z" stroke="#E8E6E2" stroke-opacity="0.2" stroke-width="2" stroke-miterlimit="10"/>
<path d="M626.399 1744.21C967.429 1744.21 1243.89 1375.86 1243.89 921.464C1243.89 467.072 967.429 98.7148 626.399 98.7148C285.37 98.7148 8.91113 467.072 8.91113 921.464C8.91113 1375.86 285.37 1744.21 626.399 1744.21Z" stroke="#E8E6E2" stroke-opacity="0.2" stroke-width="2" stroke-miterlimit="10"/>
<path d="M626.402 1706.61C951.843 1706.61 1215.66 1355.09 1215.66 921.465C1215.66 487.843 951.843 136.324 626.402 136.324C300.961 136.324 37.1396 487.843 37.1396 921.465C37.1396 1355.09 300.961 1706.61 626.402 1706.61Z" stroke="#E8E6E2" stroke-opacity="0.2" stroke-width="2" stroke-miterlimit="10"/>
<path d="M626.4 1668.99C936.248 1668.99 1187.43 1334.31 1187.43 921.465C1187.43 508.62 936.248 173.943 626.4 173.943C316.553 173.943 65.3721 508.62 65.3721 921.465C65.3721 1334.31 316.553 1668.99 626.4 1668.99Z" stroke="#E8E6E2" stroke-opacity="0.2" stroke-width="2" stroke-miterlimit="10"/>
<path d="M626.399 1631.38C920.658 1631.38 1159.2 1313.54 1159.2 921.465C1159.2 529.391 920.658 211.552 626.399 211.552C332.141 211.552 93.5967 529.391 93.5967 921.465C93.5967 1313.54 332.141 1631.38 626.399 1631.38Z" stroke="#E8E6E2" stroke-opacity="0.2" stroke-width="2" stroke-miterlimit="10"/>
<path d="M626.4 1593.77C905.07 1593.77 1130.98 1292.77 1130.98 921.465C1130.98 550.162 905.07 249.161 626.4 249.161C347.73 249.161 121.823 550.162 121.823 921.465C121.823 1292.77 347.73 1593.77 626.4 1593.77Z" stroke="#E8E6E2" stroke-opacity="0.2" stroke-width="2" stroke-miterlimit="10"/>
<path d="M626.398 1556.16C889.48 1556.16 1102.75 1272 1102.75 921.465C1102.75 570.932 889.48 286.769 626.398 286.769C363.317 286.769 150.048 570.932 150.048 921.465C150.048 1272 363.317 1556.16 626.398 1556.16Z" stroke="#E8E6E2" stroke-opacity="0.2" stroke-width="2" stroke-miterlimit="10"/>
<path d="M626.401 1518.54C873.889 1518.54 1074.52 1251.22 1074.52 921.465C1074.52 591.708 873.889 324.388 626.401 324.388C378.913 324.388 178.284 591.708 178.284 921.465C178.284 1251.22 378.913 1518.54 626.401 1518.54Z" stroke="#E8E6E2" stroke-opacity="0.2" stroke-width="2" stroke-miterlimit="10"/>
<path d="M626.4 1480.93C858.299 1480.93 1046.29 1230.45 1046.29 921.464C1046.29 612.478 858.299 361.996 626.4 361.996C394.5 361.996 206.509 612.478 206.509 921.464C206.509 1230.45 394.5 1480.93 626.4 1480.93Z" stroke="#E8E6E2" stroke-opacity="0.2" stroke-width="2" stroke-miterlimit="10"/>
<path d="M626.398 1443.32C842.709 1443.32 1018.06 1209.68 1018.06 921.464C1018.06 633.249 842.709 399.605 626.398 399.605C410.088 399.605 234.733 633.249 234.733 921.464C234.733 1209.68 410.088 1443.32 626.398 1443.32Z" stroke="#E8E6E2" stroke-opacity="0.2" stroke-width="2" stroke-miterlimit="10"/>
<path d="M626.401 1405.72C827.123 1405.72 989.84 1188.91 989.84 921.465C989.84 654.02 827.123 437.214 626.401 437.214C425.679 437.214 262.962 654.02 262.962 921.465C262.962 1188.91 425.679 1405.72 626.401 1405.72Z" stroke="#E8E6E2" stroke-opacity="0.2" stroke-width="2" stroke-miterlimit="10"/>
<path d="M626.4 1368.1C811.529 1368.1 961.605 1168.13 961.605 921.464C961.605 674.797 811.529 474.833 626.4 474.833C441.271 474.833 291.195 674.797 291.195 921.464C291.195 1168.13 441.271 1368.1 626.4 1368.1Z" stroke="#E8E6E2" stroke-opacity="0.2" stroke-width="2" stroke-miterlimit="10"/>
<path d="M626.401 1330.49C795.941 1330.49 933.38 1147.36 933.38 921.465C933.38 695.568 795.941 512.442 626.401 512.442C456.861 512.442 319.422 695.568 319.422 921.465C319.422 1147.36 456.861 1330.49 626.401 1330.49Z" stroke="#E8E6E2" stroke-opacity="0.2" stroke-width="2" stroke-miterlimit="10"/>
<path d="M626.4 1292.88C780.351 1292.88 905.153 1126.59 905.153 921.465C905.153 716.338 780.351 550.05 626.4 550.05C472.449 550.05 347.647 716.338 347.647 921.465C347.647 1126.59 472.449 1292.88 626.4 1292.88Z" stroke="#E8E6E2" stroke-opacity="0.2" stroke-width="2" stroke-miterlimit="10"/>
<path d="M626.4 1255.27C764.763 1255.27 876.928 1105.82 876.928 921.464C876.928 737.109 764.763 587.659 626.4 587.659C488.038 587.659 375.873 737.109 375.873 921.464C375.873 1105.82 488.038 1255.27 626.4 1255.27Z" stroke="#E8E6E2" stroke-opacity="0.2" stroke-width="2" stroke-miterlimit="10"/>
<path d="M626.4 1217.65C749.17 1217.65 848.694 1085.04 848.694 921.465C848.694 757.885 749.17 625.278 626.4 625.278C503.631 625.278 404.107 757.885 404.107 921.465C404.107 1085.04 503.631 1217.65 626.4 1217.65Z" stroke="#E8E6E2" stroke-opacity="0.2" stroke-width="2" stroke-miterlimit="10"/>
<path d="M626.398 1180.04C733.579 1180.04 820.466 1064.27 820.466 921.465C820.466 778.656 733.579 662.887 626.398 662.887C519.218 662.887 432.331 778.656 432.331 921.465C432.331 1064.27 519.218 1180.04 626.398 1180.04Z" stroke="#E8E6E2" stroke-opacity="0.2" stroke-width="2" stroke-miterlimit="10"/>
<path d="M626.399 1142.43C717.991 1142.43 792.24 1043.5 792.24 921.465C792.24 799.427 717.991 700.496 626.399 700.496C534.807 700.496 460.558 799.427 460.558 921.465C460.558 1043.5 534.807 1142.43 626.399 1142.43Z" stroke="#E8E6E2" stroke-opacity="0.2" stroke-width="2" stroke-miterlimit="10"/>
<path d="M626.398 1104.83C702.401 1104.83 764.013 1022.73 764.013 921.465C764.013 820.197 702.401 738.104 626.398 738.104C550.395 738.104 488.782 820.197 488.782 921.465C488.782 1022.73 550.395 1104.83 626.398 1104.83Z" stroke="#E8E6E2" stroke-opacity="0.2" stroke-width="2" stroke-miterlimit="10"/>
<path d="M626.399 1067.21C686.809 1067.21 735.781 1001.96 735.781 921.465C735.781 840.974 686.809 775.724 626.399 775.724C565.989 775.724 517.018 840.974 517.018 921.465C517.018 1001.96 565.989 1067.21 626.399 1067.21Z" stroke="#E8E6E2" stroke-opacity="0.2" stroke-width="2" stroke-miterlimit="10"/>
<path d="M626.4 1029.6C671.221 1029.6 707.555 981.185 707.555 921.465C707.555 861.745 671.221 813.333 626.4 813.333C581.579 813.333 545.244 861.745 545.244 921.465C545.244 981.185 581.579 1029.6 626.4 1029.6Z" stroke="#E8E6E2" stroke-opacity="0.2" stroke-width="2" stroke-miterlimit="10"/>
</svg>
