<svg width="30" height="31" viewBox="0 0 30 31" fill="none" xmlns="http://www.w3.org/2000/svg">
<g id="Layer_1" clip-path="url(#clip0_13381_2501)">
<path id="Vector" d="M14.8905 19.6195C17.1984 19.6195 19.0693 17.7485 19.0693 15.4406C19.0693 13.1327 17.1984 11.2617 14.8905 11.2617C12.5825 11.2617 10.7116 13.1327 10.7116 15.4406C10.7116 17.7485 12.5825 19.6195 14.8905 19.6195Z" fill="#22263B"/>
<path id="Vector_2" d="M14.8905 23.7754C13.2199 23.7754 11.6662 23.2747 10.3606 22.423C10.0705 22.2311 9.68209 22.292 9.46215 22.5587L6.11624 26.5411C5.85418 26.8546 5.9197 27.3179 6.25195 27.5518C8.69002 29.2927 11.6709 30.3222 14.8858 30.3222C18.1007 30.3222 20.9552 29.3348 23.3652 27.6642C23.7021 27.4302 23.7723 26.9622 23.5103 26.6487L20.1597 22.6617C19.9444 22.4043 19.5654 22.3341 19.2799 22.5119C18.0024 23.3074 16.5003 23.7754 14.8858 23.7754H14.8905Z" fill="#22263B"/>
<path id="Vector_3" d="M6.55144 15.4421C6.55144 10.5379 10.8052 6.61173 15.817 7.15456C19.7385 7.5804 22.8692 10.8093 23.1967 14.7355C23.3559 16.6261 22.8692 18.395 21.9473 19.8597C21.7835 20.1171 21.8209 20.454 22.0222 20.6786L25.574 24.6142C25.8641 24.9324 26.3695 24.9137 26.6362 24.5721C28.7935 21.8017 30.0009 18.2546 29.7435 14.4267C29.2521 7.07033 23.2997 1.09915 15.9434 0.589071C7.25806 -0.0145987 1.52588e-05 6.88314 1.52588e-05 15.4421C1.52588e-05 18.8161 1.13248 21.9328 3.03239 24.4317C3.29445 24.778 3.8092 24.8014 4.09934 24.4785L7.66051 20.5336C7.85705 20.3136 7.90384 19.986 7.74942 19.7333C6.99132 18.4792 6.55144 17.0098 6.55144 15.4375V15.4421Z" fill="url(#paint0_linear_13381_2501)"/>
</g>
<defs>
<linearGradient id="paint0_linear_13381_2501" x1="24.3433" y1="10.397" x2="4.74258" y2="18.1112" gradientUnits="userSpaceOnUse">
<stop stop-color="#22263B"/>
<stop offset="1" stop-color="#FFBDBD"/>
</linearGradient>
<clipPath id="clip0_13381_2501">
<rect width="29.7762" height="29.7763" fill="white" transform="translate(1.52588e-05 0.550293)"/>
</clipPath>
</defs>
</svg>
