<svg width="137" height="32" viewBox="0 0 137 32" fill="none" xmlns="http://www.w3.org/2000/svg">
<g id="Group 41440125">
<g id="Group 3">
<path id="Vector" d="M35.7808 9.30681C34.6628 8.59151 33.3931 8.23779 31.8039 8.23779C30.2147 8.23779 28.8731 8.59151 27.787 9.30681C27.0044 9.81774 26.4454 10.4702 26.102 11.2483V8.57579H21.2147V31.9762H26.2058V22.528C26.4933 23.3141 26.9725 23.9743 27.6513 24.501C28.6255 25.232 29.9272 25.6015 31.5404 25.6015V25.5857C33.1136 25.5857 34.4712 25.2084 35.6291 24.501C36.7871 23.77 37.6895 22.756 38.3283 21.459C38.9592 20.162 39.2866 18.59 39.2866 16.8449C39.2866 15.0999 38.9752 13.5829 38.3603 12.3016C37.7613 11.0204 36.8989 10.0221 35.7729 9.30681H35.7808ZM33.0098 20.4214C32.2831 21.2625 31.3248 21.6712 30.1508 21.6712V21.687C28.953 21.687 27.9787 21.2782 27.236 20.4607C26.4933 19.6433 26.118 18.4642 26.118 16.9314C26.118 15.3986 26.5013 14.2274 27.236 13.4021C27.9707 12.5767 28.8811 12.1759 30.079 12.1759C31.2768 12.1759 32.2511 12.5846 32.9938 13.3864C33.7365 14.2038 34.1118 15.3829 34.1118 16.8921C34.1118 18.4013 33.7285 19.5804 33.0098 20.4214Z" fill="#22263B"/>
<path id="Vector_2" d="M54.5486 9.29109C53.2629 8.59937 51.8175 8.23779 49.9887 8.23779C48.1599 8.23779 46.5708 8.61509 45.1972 9.33825C43.8236 10.0614 42.7535 11.0833 41.9949 12.3802C41.2362 13.6615 40.8529 15.1943 40.8529 16.9078C40.8529 18.6214 41.2362 20.1306 41.9949 21.4354C42.7535 22.756 43.8396 23.77 45.2371 24.501C46.6347 25.232 48.2797 25.6015 50.1564 25.6015V25.5622C52.2726 25.5622 53.9896 25.0984 55.3312 24.1709C56.6728 23.2433 57.6072 21.9778 58.1742 20.3586H53.4865C53.199 20.9481 52.7598 21.3726 52.1848 21.6398C51.6098 21.9071 50.9151 22.0328 50.1245 22.0328C48.679 22.0328 47.6089 21.6241 46.8822 20.783C46.3711 20.2013 46.0437 19.4074 45.892 18.3777H58.4617C58.5176 18.1105 58.5495 17.8432 58.5735 17.5367C58.6054 17.2537 58.6054 16.9314 58.6054 16.5777C58.6054 14.9034 58.246 13.4414 57.5353 12.1994C56.8325 10.9496 55.8343 9.97494 54.5486 9.27537V9.29109ZM49.9168 11.7828C51.0588 11.7828 51.9452 12.1051 52.5921 12.7418C53.1431 13.2842 53.4466 14.0938 53.5344 15.1471H45.9798C46.1555 14.306 46.443 13.6065 46.8742 13.0798C47.6009 12.2073 48.6151 11.7828 49.9168 11.7828Z" fill="#22263B"/>
<path id="Vector_3" d="M71.4511 8.21108C69.8779 8.21108 68.5363 8.58838 67.4742 9.31154C66.5957 9.91679 65.893 10.6871 65.3579 11.6225V8.55694H60.4706V25.2446H65.4617V16.2523C65.4617 15.4348 65.6215 14.7038 65.9649 14.0985C66.3082 13.4933 66.7794 13.0138 67.3943 12.6522C68.0092 12.3142 68.696 12.1334 69.4786 12.1334C70.381 12.1334 71.0917 12.3614 71.5629 12.8251C72.0341 13.2889 72.2657 13.9806 72.2657 14.8924V25.2367L72.2816 25.1974H77.2728V13.902C77.2728 12.157 76.7697 10.7657 75.7714 9.736C74.7732 8.70629 73.3278 8.1875 71.4431 8.1875L71.4511 8.21108Z" fill="#22263B"/>
<path id="Vector_4" d="M98.8588 8.22178C97.2856 8.22178 95.944 8.59908 94.8819 9.32223C94.0034 9.92749 93.3007 10.6978 92.7656 11.6411V8.57549H87.8783V25.2632H92.8694V16.2708C92.8694 15.4534 93.0291 14.7223 93.3725 14.1171C93.7159 13.5118 94.1871 13.0324 94.802 12.6708C95.4169 12.3328 96.1037 12.152 96.8863 12.152C97.7887 12.152 98.4994 12.3799 98.9626 12.8437C99.4338 13.3075 99.6654 13.9992 99.6654 14.911V25.2553L99.6813 25.216H104.672V13.9206C104.672 12.1756 104.169 10.7843 103.171 9.75456C102.173 8.72484 100.727 8.20605 98.8428 8.20605L98.8588 8.22178Z" fill="#22263B"/>
<path id="Vector_5" d="M115.714 1.38428C113.542 1.38428 111.897 1.87948 110.795 2.91706C109.692 3.93105 109.133 5.44811 109.133 7.46038V8.60014H106.314V12.326H109.133V25.2957H114.125V12.3181H117.582V8.59228H114.125V7.53898C114.125 6.79224 114.324 6.21843 114.724 5.82541C115.123 5.43239 115.738 5.23588 116.584 5.23588C116.888 5.23588 117.167 5.2516 117.383 5.2909C117.598 5.33021 117.782 5.36165 117.942 5.43239V1.68297C117.614 1.57293 117.271 1.50218 116.928 1.45502C116.584 1.4 116.185 1.38428 115.714 1.38428Z" fill="#22263B"/>
<path id="Vector_6" d="M135.85 12.3331C135.075 11.0518 133.989 10.0378 132.576 9.32253C131.162 8.59151 129.501 8.23779 127.633 8.23779C125.764 8.23779 124.143 8.61509 122.729 9.32253C121.316 10.0378 120.214 11.0361 119.439 12.3331C118.665 13.63 118.265 15.1314 118.265 16.8607C118.265 18.59 118.665 20.0992 119.439 21.4197C120.238 22.7403 121.324 23.77 122.729 24.501C124.143 25.232 125.772 25.6015 127.633 25.6015C129.493 25.6015 131.122 25.2242 132.536 24.501C133.949 23.77 135.051 22.7403 135.826 21.4197C136.609 20.0992 137 18.59 137 16.8607C137 15.1314 136.617 13.6222 135.842 12.3331H135.85ZM131.274 19.4546C130.891 20.1856 130.388 20.7516 129.757 21.1446C129.126 21.5298 128.431 21.7263 127.657 21.7341C126.89 21.7341 126.187 21.5376 125.556 21.1446C124.925 20.7516 124.414 20.1856 124.039 19.4546C123.656 18.7236 123.48 17.8511 123.48 16.8214C123.48 15.3279 123.879 14.1881 124.694 13.3471C125.492 12.5139 126.483 12.0973 127.665 12.0973C128.846 12.0973 129.821 12.506 130.635 13.3235C131.45 14.141 131.849 15.32 131.849 16.8135C131.849 17.8432 131.665 18.7157 131.29 19.4467L131.274 19.4546Z" fill="#22263B"/>
<path id="Vector_7" d="M15.0108 9.32253C13.5973 8.59151 11.9362 8.23779 10.0675 8.23779C8.19886 8.23779 6.57774 8.61509 5.16425 9.32253C3.75076 10.0378 2.64872 11.0361 1.8741 12.3331C1.09947 13.63 0.70018 15.1314 0.70018 16.8607C0.70018 18.59 1.09947 20.0992 1.8741 21.4197C2.67268 22.7403 3.75875 23.77 5.16425 24.501C6.57774 25.232 8.20685 25.6015 10.0675 25.6015C11.9282 25.6015 13.5574 25.2242 14.9708 24.501C16.3843 23.77 17.4864 22.7403 18.261 21.4197C19.0356 20.0992 19.4349 18.59 19.4349 16.8607C19.4349 15.1314 19.0516 13.6222 18.277 12.3331C17.5023 11.0518 16.4163 10.0378 15.0028 9.32253H15.0108ZM13.7091 19.4546C13.3258 20.1856 12.8227 20.7516 12.1918 21.1446C11.5609 21.5298 10.8661 21.7263 10.0915 21.7341C9.31688 21.7341 8.62211 21.5376 7.99123 21.1446C7.36035 20.7516 6.84926 20.1856 6.47393 19.4546C6.09061 18.7236 5.91492 17.8511 5.91492 16.8214C5.91492 15.3279 6.31421 14.1881 7.12876 13.3471C7.92735 12.5139 8.91759 12.0973 10.0995 12.0973C11.2814 12.0973 12.2557 12.506 13.0702 13.3235C13.8848 14.141 14.2841 15.32 14.2841 16.8135C14.2841 17.8432 14.1004 18.7157 13.7251 19.4467L13.7091 19.4546Z" fill="#22263B"/>
<path id="Vector_8" d="M82.5235 7.42854C80.7027 7.42854 79.2333 5.98222 79.2333 4.19005C79.2333 2.39787 80.7027 0.888672 82.5235 0.888672C84.3443 0.888672 85.8137 2.33499 85.8137 4.12716C85.8137 5.91934 84.3443 7.42854 82.5235 7.42854Z" fill="#22263B"/>
<path id="Vector_9" d="M82.4354 9.37756C81.6129 9.37756 80.8302 9.19677 80.1195 8.87449V25.2713H85.1106V8.71729C84.3121 9.13389 83.4017 9.37756 82.4354 9.37756Z" fill="#22263B"/>
</g>
</g>
</svg>
